<?xml version="1.0" encoding="UTF-8" standalone="no"?>
<svg width="366px" height="409px" viewBox="0 0 366 409" version="1.1" xmlns="http://www.w3.org/2000/svg" xmlns:xlink="http://www.w3.org/1999/xlink" xmlns:sketch="http://www.bohemiancoding.com/sketch/ns">
    <!-- Generator: Sketch 3.1.1 (8761) - http://www.bohemiancoding.com/sketch -->
    <title>Untitled 3</title>
    <desc>Created with Sketch.</desc>
    <defs>
        <path id="path-1" d="M0,58.9912992 L247,58.9912992 L247,0 L0,0 L0,58.9912992 L0,58.9912992 Z"></path>
    </defs>
    <g id="Page-1" stroke="none" stroke-width="1" fill="none" fill-rule="evenodd" sketch:type="MSPage">
        <g id="logo" sketch:type="MSLayerGroup">
            <g id="Page-1" transform="translate(59.000000, 152.000000)">
                <g id="meteor-logo-final-(1)-+-LONDON">
                    <g id="meteor-logo-final-(1)">
                        <g id="g10" transform="translate(124.000000, 48.991299) scale(1, -1) translate(-124.000000, -48.991299) translate(0.000000, -0.008701)">
                            <g id="g12">
                                <g id="g14-Clipped">
                                    <g id="mask-2" fill="#FFFFFF" sketch:type="MSShapeGroup">
                                        <path d="M0,58.9912992 L247,58.9912992 L247,0 L0,0 L0,58.9912992 L0,58.9912992 Z" id="path-1"></path>
                                    </g>
                                    <g id="path18"></g>
                                    <g>
                                        <mask id="mask-2" sketch:name="path-1" fill="white">
                                            <use xlink:href="#path-1"></use>
                                        </mask>
                                        <g id="path-1"></g>
                                        <g id="g14" mask="url(#mask-2)" sketch:type="MSShapeGroup">
                                            <g id="g20" transform="translate(147.369298, 3.739746)" fill="#DE4F4F">
                                                <path d="M51.0466667,0.828651685 L0.160138333,55.2515941 L54.2333783,4.03594803 C55.14028,3.17746489 55.183505,1.74141152 54.33012,0.828651685 C53.4771467,-0.0841081461 52.05031,-0.12761236 51.1434083,0.731285112 C51.11171,0.761530899 51.0763067,0.797162921 51.0466667,0.828651685" id="path22"></path>
                                            </g>
                                            <g id="g24" transform="translate(152.651969, -0.098610)" fill="#DE4F4F">
                                                <path d="M38.285,0.828651685 L-0.0848033333,42.6536025 L41.4717117,4.03594803 C42.3868467,3.1857514 42.4436567,1.74969803 41.5989167,0.828651685 C40.753765,-0.0923946629 39.32734,-0.149571629 38.412205,0.700625 C38.36898,0.740814607 38.32452,0.785976124 38.285,0.828651685" id="path26"></path>
                                            </g>
                                            <g id="g28" transform="translate(157.638117, 0.203227)" fill="#DE4F4F">
                                                <path d="M25.5233333,0.414325843 L0.0242883333,28.2164185 L27.647945,2.55266152 C28.258035,1.98586376 28.2959083,1.02835674 27.7327483,0.414325843 C27.1695883,-0.199705056 26.2186383,-0.23823736 25.6081367,0.328974719 C25.57932,0.355491573 25.54968,0.38573736 25.5233333,0.414325843" id="path30"></path>
                                            </g>
                                            <g id="g32" transform="translate(177.768205, 19.446218)" fill="#DE4F4F">
                                                <path d="M26.7583333,0.414325843 L0.136673333,29.3462851 L28.882945,2.55266152 C29.4922117,1.98462079 29.5284383,1.02752809 28.964455,0.414325843 C28.40006,-0.198876404 27.44911,-0.235337079 26.8398433,0.332289326 C26.8122617,0.357977528 26.783445,0.386980337 26.7583333,0.414325843" id="path34"></path>
                                            </g>
                                            <g id="g36" transform="translate(163.533019, 10.931697)" fill="#DE4F4F">
                                                <path d="M38.6966667,0.828651685 L0.160138333,42.8214045 L41.8833783,4.03594803 C42.7985133,3.1857514 42.8553233,1.74969803 42.0101717,0.828651685 C41.16502,-0.0923946629 39.7381833,-0.149157303 38.8230483,0.701453652 C38.780235,0.741228933 38.735775,0.786390449 38.6966667,0.828651685" id="path38"></path>
                                            </g>
                                            <g id="g40" transform="translate(162.944747, 2.813190)" fill="#DE4F4F">
                                                <path d="M12.2676667,0.0828651685 L0.137085,13.3611798 L13.3297667,1.15182584 C13.635635,0.869255618 13.655395,0.390294944 13.3746383,0.0828651685 C13.09347,-0.224564607 12.617995,-0.244866573 12.3121267,0.0381179775 C12.296895,0.0522050562 12.2816633,0.0679494382 12.2676667,0.0828651685" id="path42"></path>
                                            </g>
                                            <g id="g44" transform="translate(191.307387, 29.390162)" fill="#DE4F4F">
                                                <path d="M12.2676667,0.0828651685 L0.137085,13.3611798 L13.3297667,1.15182584 C13.635635,0.869255618 13.655395,0.390294944 13.3746383,0.0828651685 C13.09347,-0.224564607 12.617995,-0.244866573 12.3121267,0.0381179775 C12.296895,0.0522050562 12.2816633,0.0679494382 12.2676667,0.0828651685" id="path46"></path>
                                            </g>
                                            <g id="g48" transform="translate(0.000000, 0.447721)" fill="#000000">
                                                <path d="M0,36.875 L8.64417667,36.875 L18.2253067,21.3622261 L27.8064367,36.875 L36.4506133,36.875 L36.4506133,0.188932584 L28.5354983,0.188932584 L28.5354983,24.1398666 L18.2771767,8.46964888 L18.069285,8.46964888 L7.91470333,23.9824228 L7.91470333,0.188932584 L0,0.188932584 L0,36.875 L0,36.875 Z" id="path50"></path>
                                            </g>
                                            <g id="g52" transform="translate(46.500467, 0.447721)" fill="#000000">
                                                <path d="M0,36.875 L27.4421117,36.875 L27.4421117,29.6947331 L7.91470333,29.6947331 L7.91470333,22.2530267 L25.098905,22.2530267 L25.098905,15.0731742 L7.91470333,15.0731742 L7.91470333,7.36919944 L27.702285,7.36919944 L27.702285,0.188932584 L0,0.188932584 L0,36.875 L0,36.875 Z" id="path54"></path>
                                            </g>
                                            <g id="g56" transform="translate(83.968720, 0.463713)" fill="#000000">
                                                <path d="M11.115,29.4171348 L0.0238766667,29.4171348 L0.0238766667,36.8588413 L30.2258017,36.8588413 L30.2258017,29.4171348 L19.1342667,29.4171348 L19.1342667,0.173188202 L11.115,0.173188202 L11.115,29.4171348 L11.115,29.4171348 Z" id="path58"></path>
                                            </g>
                                            <g id="g60" transform="translate(124.244417, 0.447721)" fill="#000000">
                                                <path d="M0,36.875 L27.4421117,36.875 L27.4421117,29.6947331 L7.915115,29.6947331 L7.915115,22.2530267 L25.098905,22.2530267 L25.098905,15.0731742 L7.915115,15.0731742 L7.915115,7.36919944 L27.702285,7.36919944 L27.702285,0.188932584 L0,0.188932584 L0,36.875 L0,36.875 Z" id="path62"></path>
                                            </g>
                                            <g id="g64" transform="translate(215.584358, 0.444737)" fill="#000000">
                                                <path d="M16.055,19.0589888 C18.0338817,19.0589888 19.5516967,19.5309059 20.6113267,20.4739115 C21.6697217,21.4173315 22.199125,22.6752247 22.199125,24.2475913 L22.199125,24.3524157 C22.199125,26.0992135 21.643375,27.4093118 20.5326983,28.283125 C19.42161,29.1561096 17.8774483,29.5932233 15.8985667,29.5932233 L7.93117,29.5932233 L7.93117,19.0589888 L16.055,19.0589888 L16.055,19.0589888 Z M-0.087685,36.8779003 L16.5753467,36.8779003 C21.1921883,36.8779003 24.733345,35.6374087 27.1979933,33.1572542 C29.2810267,31.0607654 30.3221317,28.265309 30.3221317,24.7712992 L30.3221317,24.666889 C30.3221317,21.6965871 29.6021267,19.2769242 28.1612933,17.4083146 C26.72046,15.5388764 24.8366733,14.1670435 22.51158,13.2944733 L31.4155183,0.192247191 L22.0426917,0.192247191 L14.23214,11.9313413 L14.1284,11.9313413 L7.93117,11.9313413 L7.93117,0.192247191 L-0.087685,0.192247191 L-0.087685,36.8779003 L-0.087685,36.8779003 Z" id="path66"></path>
                                            </g>
                                        </g>
                                    </g>
                                </g>
                            </g>
                        </g>
                    </g>
                    <path d="M33.2682114,131.897196 L41.5948438,131.897196 L41.5948438,133.747664 L30.8874471,133.747664 L30.8874471,116.252336 L33.2682114,116.252336 L33.2682114,131.897196 L33.2682114,131.897196 Z M75.5200718,126.562083 C75.5200718,128.700945 74.8533839,130.475293 73.5199882,131.88518 C72.1865924,133.295067 70.4564265,134 68.3294387,134 C66.2749617,134 64.6052208,133.295067 63.3201656,131.88518 C62.0351105,130.475293 61.3925925,128.700945 61.3925925,126.562083 L61.3925925,123.449933 C61.3925925,121.319081 62.0351105,119.544733 63.3201656,118.126836 C64.6052208,116.708938 66.2749617,116 68.3294387,116 C70.4564265,116 72.1865924,116.706936 73.5199882,118.120828 C74.8533839,119.53472 75.5200718,121.311071 75.5200718,123.449933 L75.5200718,126.562083 L75.5200718,126.562083 Z M73.1393076,123.425901 C73.1393076,121.823757 72.7042484,120.510019 71.8341171,119.484646 C70.9639856,118.459274 69.7957712,117.946595 68.3294387,117.946595 C66.9436739,117.946595 65.8378985,118.459274 65.0120793,119.484646 C64.1862602,120.510019 63.7733567,121.823757 63.7733567,123.425901 L63.7733567,126.562083 C63.7733567,128.180248 64.1862602,129.501998 65.0120793,130.52737 C65.8378985,131.552742 66.9436739,132.065421 68.3294387,132.065421 C69.803828,132.065421 70.9740566,131.554745 71.8401596,130.533378 C72.7062626,129.512011 73.1393076,128.188259 73.1393076,126.562083 L73.1393076,123.425901 L73.1393076,123.425901 Z M110.629639,133.747664 L108.248875,133.747664 L99.7772216,120.217624 L99.704711,120.241656 L99.704711,133.747664 L97.3239468,133.747664 L97.3239468,116.252336 L99.704711,116.252336 L108.176365,129.758344 L108.248875,129.734312 L108.248875,116.252336 L110.629639,116.252336 L110.629639,133.747664 L110.629639,133.747664 Z M133.231131,133.747664 L133.231131,116.252336 L138.633169,116.252336 C140.937406,116.252336 142.786408,116.955267 144.180229,118.361148 C145.574051,119.76703 146.270951,121.583433 146.270951,123.810414 L146.270951,126.201602 C146.270951,128.436593 145.574051,130.252997 144.180229,131.650868 C142.786408,133.048739 140.937406,133.747664 138.633169,133.747664 L133.231131,133.747664 L133.231131,133.747664 Z M135.611895,118.11482 L135.611895,131.897196 L138.633169,131.897196 C140.260638,131.897196 141.543659,131.364491 142.482274,130.299065 C143.420887,129.23364 143.890187,127.867832 143.890187,126.201602 L143.890187,123.786382 C143.890187,122.136173 143.420887,120.778377 142.482274,119.712951 C141.543659,118.647525 140.260638,118.11482 138.633169,118.11482 L135.611895,118.11482 L135.611895,118.11482 Z M181.102562,126.562083 C181.102562,128.700945 180.435874,130.475293 179.102478,131.88518 C177.769082,133.295067 176.038917,134 173.911929,134 C171.857452,134 170.187711,133.295067 168.902656,131.88518 C167.6176,130.475293 166.975083,128.700945 166.975083,126.562083 L166.975083,123.449933 C166.975083,121.319081 167.6176,119.544733 168.902656,118.126836 C170.187711,116.708938 171.857452,116 173.911929,116 C176.038917,116 177.769082,116.706936 179.102478,118.120828 C180.435874,119.53472 181.102562,121.311071 181.102562,123.449933 L181.102562,126.562083 L181.102562,126.562083 Z M178.721797,123.425901 C178.721797,121.823757 178.286738,120.510019 177.416607,119.484646 C176.546476,118.459274 175.378261,117.946595 173.911929,117.946595 C172.526164,117.946595 171.420388,118.459274 170.594569,119.484646 C169.76875,120.510019 169.355847,121.823757 169.355847,123.425901 L169.355847,126.562083 C169.355847,128.180248 169.76875,129.501998 170.594569,130.52737 C171.420388,131.552742 172.526164,132.065421 173.911929,132.065421 C175.386318,132.065421 176.556547,131.554745 177.42265,130.533378 C178.288753,129.512011 178.721797,128.188259 178.721797,126.562083 L178.721797,123.425901 L178.721797,123.425901 Z M216.21213,133.747664 L213.831365,133.747664 L205.359712,120.217624 L205.287201,120.241656 L205.287201,133.747664 L202.906437,133.747664 L202.906437,116.252336 L205.287201,116.252336 L213.758854,129.758344 L213.831365,129.734312 L213.831365,116.252336 L216.21213,116.252336 L216.21213,133.747664 L216.21213,133.747664 Z" id="LONDON" fill="#000000" sketch:type="MSShapeGroup"></path>
                </g>
            </g>
            <path d="M115.638365,104.229883 C107.51251,106.22568 99.8549765,109.888518 92.9076804,114.523667 C89.0820153,116.756727 85.6921069,119.631791 82.1486757,122.280447 C79.8985582,124.186302 77.8081664,126.275143 75.562701,128.199606 C70.9027401,132.896784 66.8553197,138.153779 62.8854362,143.434034 C53.0909892,156.502084 44.265752,170.388923 37.6797773,185.36903 C32.7903075,196.486255 29.1646873,208.197411 27.3735875,220.223367 C25.0381795,235.526027 25.8926349,251.261343 29.5275595,266.294175 C33.1066576,280.663293 38.796307,294.485 46.1824614,307.312687 C49.9429956,314.007213 53.8058784,320.645913 57.7680082,327.224134 C60.7299135,331.547585 63.7166306,336.016805 67.9796032,339.174103 C77.6779046,346.58507 88.2213569,353.430017 100.188385,356.453952 C107.42877,358.269863 115.236724,358.080674 122.247601,355.410307 C121.900236,349.737715 119.070143,344.378373 119.830004,338.625143 C120.017643,337.73347 119.910642,336.48978 120.913968,336.085038 C122.404225,336.525447 123.661872,337.530323 124.727227,338.625143 C129.550015,343.565787 132.386311,349.962572 135.929742,355.79644 C139.705784,362.918969 145.206244,369.030419 151.474318,374.05015 C156.044336,377.666466 161.27962,380.657835 167.01269,381.89067 C170.633658,382.174455 174.277887,381.707684 177.903507,381.946497 C178.970413,382.410167 179.838825,383.292536 180.995674,383.540653 C184.076986,383.680219 186.584526,381.641002 188.989717,380.01428 C196.354161,374.648734 203.025426,368.355849 209.098107,361.57138 C210.037853,362.432038 211.566879,363.252377 211.307906,364.759693 C210.890758,370.103528 206.913121,374.11218 204.636641,378.720967 C215.769373,379.193941 226.948627,378.044846 237.848748,375.774569 C255.910167,371.94115 273.183813,364.089775 287.628917,352.535243 C300.548096,342.26472 311.159781,329.227684 319.257723,314.884929 C328.783893,297.888865 335.011647,279.132717 338.212366,259.937709 C341.841088,236.92324 339.61268,212.993837 331.629493,191.1021 C327.704581,180.602068 322.365397,170.596721 315.356072,161.82576 C312.172411,158.280778 309.067838,154.628795 305.257681,151.721166 C299.506002,147.244192 293.161942,143.496063 286.382125,140.816392 C278.478025,137.645137 269.67915,136.275838 261.274162,138.032821 C256.625057,139.10438 252.258185,141.123438 247.933183,143.099075 C242.893292,145.474802 237.828589,148.951552 235.804878,154.388431 C233.979662,159.749325 234.475898,165.528917 234.987641,171.065043 C234.96593,174.524735 235.541253,177.975122 235.145816,181.430161 C235.122555,184.813867 233.835444,188.177412 231.441108,190.584154 C230.755683,187.271783 230.608363,183.877222 229.922938,180.561749 C228.209375,171.410858 225.515747,162.317343 220.82167,154.227155 C217.436413,148.464621 212.505074,142.961059 205.791939,141.266105 C200.080579,140.054981 194.062173,141.532832 189.177356,144.631202 C184.235161,147.884645 179.803158,151.874689 174.732252,154.943595 C171.69126,156.816883 168.239322,157.871384 164.709847,158.316445 C164.007364,156.636998 163.137401,154.898623 163.427389,153.019132 C163.743739,151.041943 165.133198,149.415222 166.657571,148.208749 C169.26901,146.167981 171.885101,144.124111 174.477932,142.05543 C176.467526,140.352722 178.070986,137.559847 177.118835,134.901886 C175.070313,130.077547 170.802688,126.797741 167.158459,123.23415 C161.808421,118.595899 156.213366,114.230578 150.29886,110.341333 C147.343157,108.720814 144.697602,106.293913 141.276679,105.72014 C136.928416,104.932367 132.569298,104.175608 128.21018,103.44211 C124.040251,102.545784 119.744713,103.342862 115.638365,104.229883 M165.240199,94.5765532 C160.37399,94.4323348 154.822356,94.9053092 151.384375,98.820917 C156.191656,101.891374 160.536817,105.627096 165.07427,109.080585 C170.295597,112.985337 174.13677,118.329173 178.483482,123.117845 C181.434532,126.546521 184.390235,130.04188 188.147667,132.626956 C187.651432,129.176569 185.851028,126.130924 184.487931,122.976728 C180.372278,114.748524 175.312228,106.842873 173.079168,97.811388 C170.456874,96.7475833 167.904363,95.5085454 165.240199,94.5765532 M207.395399,26.2092661 C204.591669,28.0732505 203.227022,31.2305485 201.575488,34.0280758 C198.033608,40.3395703 194.426596,46.6913839 192.336205,53.6603904 C187.722766,68.7056287 186.907079,84.7743525 188.93389,100.328232 C190.248914,110.505711 193.804751,120.180751 196.549554,130.018619 C199.737866,130.666826 203.01302,130.956814 206.081926,132.077996 C210.7698,133.473658 215.015715,136.032372 218.856887,139.019089 C222.000229,141.563846 224.802408,144.491636 227.865111,147.123234 C229.260774,144.730449 230.558739,142.218257 232.588653,140.289142 C235.966155,136.848059 240.441578,134.870871 244.854972,133.144902 C251.392874,130.856016 258.154082,129.302179 264.783477,127.311034 C264.299648,121.694269 260.145227,117.220397 255.395323,114.622914 C247.035307,109.978461 237.26257,108.531624 227.807734,108.692901 C223.932446,108.793699 220.088172,109.413993 216.327637,110.310318 C217.242572,118.437724 223.166382,124.518159 227.579776,130.964568 C223.305948,131.206482 218.793307,130.406303 215.431312,127.57621 C210.754293,123.67611 208.364609,117.770908 206.829381,112.02233 C204.749844,103.521197 204.371465,94.6975106 204.759149,85.9854771 C205.151485,77.1431819 206.302131,68.3334521 208.319638,59.7098106 C209.282645,55.9229139 210.30458,52.1158576 212.028998,48.5879337 C214.046505,44.9157915 216.183419,41.3180845 218.259854,37.6816092 C219.258528,35.6237829 220.491363,33.5194344 220.37971,31.151461 C216.060911,29.4735649 211.735909,27.8251328 207.395399,26.2092661 M234.133185,8.97438896 C235.87156,10.000976 237.257918,11.5020882 238.718711,12.8713879 C241.77211,16.0100771 245.003843,19.2898832 246.446027,23.5249425 C247.333048,25.9658006 246.351432,28.510558 246.517361,31.0056918 C246.841465,38.7050948 243.941589,46.1548294 239.987213,52.6276004 C238.507811,55.3088225 236.775639,57.8597828 235.451311,60.6200924 C233.556312,67.9085505 231.625646,75.2791975 231.241063,82.8374836 C241.89927,83.1429785 252.645869,84.8720489 262.542664,88.9318751 C274.086341,93.5484154 283.544279,102.913309 288.483372,114.314318 C303.316159,118.603653 316.931619,126.752769 328.120178,137.366005 C340.631514,149.405917 349.70797,164.682215 355.723274,180.902911 C362.386786,199.196941 365.913159,218.624558 366,238.100249 L366,240.761311 C365.739476,257.107617 362.962109,273.346921 358.274234,288.992294 C354.451671,302.147186 349.185372,314.889582 342.538919,326.867464 C340.386498,331.069958 337.678913,334.948348 335.222548,338.975609 C329.235157,347.669034 322.585602,355.940658 315.049026,363.346972 C302.984302,375.117057 288.83694,384.730068 273.453641,391.609131 C255.016944,399.914872 234.914756,404.320512 214.733481,405.041604 C209.797489,405.19978 204.814975,405.472709 199.913099,404.69424 C195.836215,406.942806 191.44143,408.803689 186.767513,409.29062 C183.1574,409.551144 179.534881,409.123141 175.989899,408.428411 C174.375583,408.10896 172.719397,408.262483 171.083371,408.312106 C168.071842,408.465629 165.05256,408.217511 162.08135,407.716624 C152.989386,405.847987 144.426224,401.730784 137.058678,396.11712 C131.795481,392.203063 127.164984,387.513638 122.827576,382.608661 C113.817801,384.469544 104.423444,384.157846 95.4694958,382.148093 C82.9953775,379.404841 71.4517005,373.508944 60.8601753,366.494966 C51.1820335,360.554097 42.8623362,352.426691 36.7663939,342.832289 C31.2783401,333.980689 26.1050857,324.935248 21.0496871,315.826226 C13.9442159,302.474391 8.21579801,288.351841 4.5979315,273.649315 C1.72907036,262.420437 0.328755979,250.847296 0,239.271054 C0.193841969,227.589362 1.25299449,217.030402 3.54653267,206.700951 C7.06670282,190.832272 13.0199774,175.548221 20.7255833,161.250437 C28.873149,146.051676 38.796307,131.865545 49.6142397,118.465637 C60.5081583,105.284384 74.1934013,94.4447407 89.4262786,86.7019171 C100.763708,80.9952095 113.261087,77.1928054 126.037599,77.2067621 C129.171636,77.3013569 132.242093,78.0038402 135.328057,78.4721624 C142.870836,72.1203488 152.787791,69.1057185 162.529513,68.7242375 C164.088002,54.7241951 167.944682,40.8451101 175.014486,28.592747 C178.967312,21.6470015 182.022261,13.8700617 188.191088,8.50141456 C193.407763,3.67242342 200.217044,0.394168044 207.414008,0.37400848 C211.501748,0.555444563 215.012613,1.36958083 218.348246,2.66754666 C223.630052,4.71761932 229.026612,6.49786396 234.133185,8.97438896 Z" id="Fill-259" fill="#1F1311" sketch:type="MSShapeGroup"></path>
            <g id="Group-280" transform="translate(76.000000, 59.000000) rotate(-35.000000) translate(-76.000000, -59.000000) translate(24.000000, 36.000000)" sketch:type="MSShapeGroup">
                <path d="M51.2620024,6.6549625 C54.8671111,4.8156382 57.4601458,1.25978447 61.3769111,0 C62.3766744,1.78409909 62.2626378,3.99115832 61.6218304,5.88180958 C60.951218,8.26948772 58.7715656,10.1854776 59.0793346,12.8232935 C60.8961435,13.127357 62.4861753,12.109264 64.2401346,11.8974591 C69.7002804,10.4726487 75.3671173,9.22520868 80.2369946,6.23590062 C81.6954956,5.48353837 81.215376,3.71243344 81.3669927,2.38053135 C81.7291882,2.71058318 82.088144,3.04843152 82.445804,3.3823816 C82.9265716,2.40197172 83.5719145,1.51382043 84.2127219,0.634115337 C83.7021494,2.24539201 83.4118746,3.91059448 82.90195,5.52187116 C84.1874525,5.66155845 85.3511432,6.24044858 86.5232571,6.75176904 C91.4184038,8.71388822 96.2507009,10.9456364 100.606118,13.9479386 C101.933736,14.8529823 102.996997,16.0828802 104,17.3264219 C102.064619,18.0365532 99.7119681,18.4595133 98.5482774,20.3573113 C97.5323157,21.8029124 97.5109339,23.6467846 97.3975453,25.3464217 C95.9850477,25.1774975 94.57255,24.4374797 93.143206,24.9072188 C91.7559778,25.2827502 90.2378668,25.3080889 89.015214,26.136467 C87.7083297,26.7497917 87.189334,28.1746021 86.5867547,29.379811 C83.7915644,29.3629186 80.987303,29.4350362 78.2128466,29.083544 C75.7889228,29.6630839 73.1829294,28.8678408 70.8639711,29.9210181 C68.0137063,30.6311493 66.1800511,33.100041 63.6835587,34.4787221 C63.6744876,34.6775328 63.6498661,35.0745046 63.6414429,35.2733153 C65.3189459,36.546094 66.8286337,38.0254799 68.3124042,39.5178599 C67.659934,39.5477465 67.0055199,39.5730851 66.3569373,39.5899775 C66.2513239,40.2156467 66.1463585,40.8374176 66.0446327,41.4585387 C65.5049031,40.3131029 64.8815899,39.2131467 64.3412124,38.0683606 C61.0192511,39.2514795 57.1478413,38.0300278 54.1252258,40.1188401 C52.7503084,41.7970368 52.6025793,44.0840101 51.6753847,46 C51.1946172,44.8116835 50.5032708,43.6616997 50.5460345,42.3336959 C50.5622329,41.2603777 49.6305028,40.5203599 49.1374245,39.644553 C47.6575416,39.7043262 46.2819762,39.2059999 44.8830852,38.8291691 C43.3397047,38.7018262 41.7833655,38.6764876 40.2360974,38.6427028 C38.7568625,38.5368003 37.6689801,39.7043262 36.7955641,40.7399613 C36.3446016,40.2325391 35.8852159,39.7335631 35.3960252,39.2644737 C36.5979441,37.788986 38.2087097,36.7527012 39.5447511,35.4253471 C39.8991714,34.4488355 38.9927107,33.7465008 38.4238241,33.1045889 C35.8852159,30.5083544 32.3351816,29.3291338 28.8862252,28.5637773 C26.9087284,28.5092018 24.9266962,28.5299925 22.9491994,28.5553311 C21.8872344,28.5507832 20.9976201,29.2531179 19.9602766,29.3544724 C18.8892405,29.4512789 17.8182045,29.4006017 16.7517039,29.3583706 C16.2456669,28.4793153 15.937898,27.4937077 15.4020559,26.6315448 C14.6517476,25.8324035 13.75371,25.1092781 12.7293253,24.7168543 C10.6585259,24.5264897 8.5799514,24.7460912 6.51433556,24.6317425 C6.37502959,24.5089476 6.10548875,24.2640076 5.9700704,24.1412127 C5.52753099,21.8542393 4.62495795,19.6004011 3.02326335,17.8760752 C2.19261105,16.9710315 1.00753847,16.5519696 0.0213818454,15.867177 C0.0168463024,15.7619243 0.00453554296,15.5501193 0,15.4442169 C6.3918759,11.8851146 12.6489814,7.9017528 19.6058563,5.53031737 C19.2008971,4.13474386 18.8302785,2.70603523 19.0324341,1.2389938 C19.6900878,1.90689397 20.4112392,2.49033206 21.3092767,2.78594935 C22.2325836,5.77525741 25.0828484,7.45020551 27.7218865,8.73013093 C30.108878,9.63517464 32.609258,10.3797404 35.1686001,10.451858 C38.2087097,11.3354614 41.2902872,12.0709312 44.3135506,13.00911 C44.6128964,10.8027005 42.4922061,9.44091185 42.0328204,7.43266338 C41.560476,5.3146142 40.6112516,3.00620048 41.7036696,0.908941964 C43.1038565,0.849818505 44.140552,1.88155535 45.2835088,2.5325631 C47.286275,3.89370207 49.469815,5.00600274 51.2620024,6.6549625" id="Fill-274" fill="#1F1311"></path>
                <path d="M56.4715196,12 C55.3141037,11.3850451 54.1566879,10.7707349 53,10.1544908 C54.3372157,9.77546197 55.6678799,9.38547486 57,9 C56.9010009,9.64009454 56.7699727,10.2776107 56.6709736,10.9170606 C56.5865332,11.2773958 56.5632393,11.640954 56.4715196,12" id="Fill-276" fill="#E26029"></path>
                <path d="M47.420011,9 C48.6118747,9.56105398 49.7993403,10.127892 51,10.6812339 C49.6652007,11.1201799 48.3326003,11.5597686 47,12 C47.1297416,10.9993573 47.2726773,10 47.420011,9" id="Fill-278" fill="#E26029"></path>
            </g>
        </g>
        <g id="Group-287" sketch:type="MSLayerGroup" transform="translate(286.000000, 30.000000)">
            <path d="M43.5893525,1.0321818 C40.1908183,0.345802028 36.6901155,-0.0832871027 33.19023,0.0136039914 C33.0463767,1.95712535 33.0978697,3.91774514 32.6646751,5.83276911 C32.2707132,7.57192354 31.7819389,9.30700692 31.8015553,11.0909429 C31.8211716,12.4832435 31.7337154,13.8755441 31.3920638,15.2401616 C29.2367163,15.1123305 27.9248723,13.4806519 26.2623858,12.5109267 C22.7338932,10.3109289 16.8146568,10.5332085 14.4394426,13.9724352 C13.0254301,16.2693241 12.2751043,18.8357168 11.7708004,21.3882679 C10.9869634,26.6187585 8.92397629,31.7238607 5.66193922,36.1906216 C4.21686742,38.4647126 2.15388031,40.3838076 0.551877633,42.570778 C-0.129790851,43.4224426 -0.339032016,44.813929 0.858383247,45.4140024 C1.81713281,45.6256972 2.81593243,45.6452383 3.7918463,45.7429436 C4.01988648,46.3560444 4.49721789,47.0139267 4.12450706,47.6620386 C3.33740065,49.5387947 1.60789164,50.9490079 0.559233768,52.7085176 C2.39499806,53.5780948 4.50947811,52.9706935 6.47274874,53.1864594 C7.98974718,54.0763919 7.2590378,55.7837921 6.90185659,57.0213926 C6.31173112,58.6188743 6.25124735,60.3213893 6.70078891,61.949811 C8.11316678,61.2601744 9.4503486,60.4703899 10.8267631,59.7367859 C11.5852624,61.7942968 11.0433604,64.0431472 12.0429774,66.050177 C12.9788412,66.1299697 14.097791,66.2691997 14.7165237,65.5005847 C16.9797612,63.0897063 18.3087695,60.1691318 19.9777947,57.4504817 C20.3954597,57.6621766 20.8041339,57.8901556 21.2054519,58.1262768 C21.4947932,59.7742396 21.3190633,61.4686124 21.8119243,63.0937773 C22.5835011,65.6015468 23.0755448,68.1597974 23.8830849,70.6618674 C24.6170637,72.9579421 24.6489403,75.5455042 26.4160473,77.4996103 C27.5023032,78.6248497 29.1451733,79.7948708 30.9506957,79.2338795 C31.4239404,76.7130826 31.2228727,73.8584593 33.2351842,71.78385 C34.4138004,70.9696391 36.2201402,70.6016158 37.5777557,71.3270777 C38.9304672,71.9971732 39.6995919,73.2421017 40.4744381,74.3608274 C41.8753731,76.6227052 43.2926551,78.8813262 44.6004123,81.1831003 C45.3679024,82.5314335 46.1582782,84.0238821 47.7831666,84.7485297 C48.875144,85.4202537 50.1395818,84.6125565 50.8588483,83.8903515 C53.2741125,81.4127078 53.554463,78.0809569 54.8074579,75.1530546 C55.8021708,72.745433 58.4479273,71.3547608 60.2379201,69.4413653 C61.3658607,68.2680874 60.7512148,66.289555 62.3810073,65.424863 C64.9172391,64.0724588 68.1637465,63.7646871 70.3280849,61.8863026 C71.7568097,60.6063631 70.9419134,58.7393776 70.3068338,57.3153227 C68.8143558,54.235163 67.2376909,51.1875717 65.6324189,48.1497509 C64.0590234,45.2023075 62.3891808,41.9845462 63.3798069,38.6658226 C64.2396573,39.2023876 64.4317342,40.1314022 64.7455959,40.9456131 C65.3193745,42.6009038 66.2576903,44.1666313 67.4657311,45.5418335 C68.2291344,46.4700339 69.7093522,46.1687759 70.8250326,46.4138533 C72.4074189,46.4944602 73.341648,47.7174049 74.6183461,48.3410905 C75.5010823,48.6276927 76.472092,48.4933479 77.3907915,48.5137032 C77.4079558,45.8772884 76.741817,43.2140046 77.3196822,40.5946882 C77.7324431,38.6772216 80.1893921,37.4502058 79.9883244,35.4000228 C79.7512934,33.1926971 78.9821687,31.0708636 78.2898747,28.9457732 C77.291075,25.8428156 76.4810829,22.6942621 75.3727586,19.6189876 C73.88355,16.1406788 71.7895036,12.8781358 69.6815623,9.65304654 C68.0198932,7.54016932 66.6753553,5.18547147 64.4766884,3.43247545 C63.3005242,2.30397918 61.3421576,3.2036822 60.4659602,4.19050578 C58.8173687,6.1234424 58.9767516,8.6621519 58.1389696,10.8654065 C57.3436897,12.9335022 56.2198358,15.0708057 54.0930955,16.3662152 C53.0542458,17.0623655 51.1220344,16.9198786 51.0149618,15.5520043 C51.2470887,14.357557 51.9974145,13.3039681 52.4755632,12.1787287 C53.46292,10.013742 53.317432,7.37732714 51.660667,5.47940159 C49.6736933,3.24927801 46.7606639,1.67296575 43.5893525,1.0321818" id="Fill-281" fill="#1F1311" sketch:type="MSShapeGroup"></path>
            <path d="M40,9.4996277 C40,10.8801191 39.1039819,12 38.0003774,12 C36.8960181,12 36,10.8801191 36,9.4996277 C36,8.11913626 36.8960181,7 38.0003774,7 C39.1039819,7 40,8.11913626 40,9.4996277" id="Fill-283" fill="#E26029" sketch:type="MSShapeGroup"></path>
            <path d="M47,9.4996277 C47,10.8801191 46.1045678,12 45.000755,12 C43.8961872,12 43,10.8801191 43,9.4996277 C43,8.11913626 43.8961872,7 45.000755,7 C46.1045678,7 47,8.11913626 47,9.4996277" id="Fill-285" fill="#E26029" sketch:type="MSShapeGroup"></path>
        </g>
    </g>
</svg>