<?xml version="1.0" encoding="UTF-8" standalone="no"?>
<svg width="248px" height="98px" viewBox="0 0 248 98" version="1.1" xmlns="http://www.w3.org/2000/svg" xmlns:xlink="http://www.w3.org/1999/xlink" xmlns:sketch="http://www.bohemiancoding.com/sketch/ns">
    <!-- Generator: Sketch 3.1.1 (8761) - http://www.bohemiancoding.com/sketch -->
    <title>Meteor London</title>
    <desc>Created with Sketch.</desc>
    <defs>
        <path id="path-1" d="M0,58.9912992 L247,58.9912992 L247,0 L0,0 L0,58.9912992 L0,58.9912992 Z"></path>
    </defs>
    <g id="Page-1" stroke="none" stroke-width="1" fill="none" fill-rule="evenodd" sketch:type="MSPage">
        <g id="logo" sketch:type="MSLayerGroup" transform="translate(0.000000, -39.000000)">
            <g id="Page-1">
                <g id="meteor-logo-final-(1)-+-LONDON">
                    <g id="meteor-logo-final-(1)">
                        <g id="g10" transform="translate(124.000000, 48.991299) scale(1, -1) translate(-124.000000, -48.991299) translate(0.000000, -0.008701)">
                            <g id="g12">
                                <g id="g14-Clipped">
                                    <g id="mask-2" fill="#FFFFFF" sketch:type="MSShapeGroup">
                                        <path d="M0,58.9912992 L247,58.9912992 L247,0 L0,0 L0,58.9912992 L0,58.9912992 Z" id="path-1"></path>
                                    </g>
                                    <g id="path18"></g>
                                    <g>
                                        <mask id="mask-2" sketch:name="path-1" fill="white">
                                            <use xlink:href="#path-1"></use>
                                        </mask>
                                        <g id="path-1"></g>
                                        <g id="g14" mask="url(#mask-2)" fill="#000000" sketch:type="MSShapeGroup">
                                            <g id="g20" transform="translate(147.369298, 3.739746)">
                                                <path d="M51.0466667,0.828651685 L0.160138333,55.2515941 L54.2333783,4.03594803 C55.14028,3.17746489 55.183505,1.74141152 54.33012,0.828651685 C53.4771467,-0.0841081461 52.05031,-0.12761236 51.1434083,0.731285112 C51.11171,0.761530899 51.0763067,0.797162921 51.0466667,0.828651685" id="path22"></path>
                                            </g>
                                            <g id="g24" transform="translate(152.651969, -0.098610)">
                                                <path d="M38.285,0.828651685 L-0.0848033333,42.6536025 L41.4717117,4.03594803 C42.3868467,3.1857514 42.4436567,1.74969803 41.5989167,0.828651685 C40.753765,-0.0923946629 39.32734,-0.149571629 38.412205,0.700625 C38.36898,0.740814607 38.32452,0.785976124 38.285,0.828651685" id="path26"></path>
                                            </g>
                                            <g id="g28" transform="translate(157.638117, 0.203227)">
                                                <path d="M25.5233333,0.414325843 L0.0242883333,28.2164185 L27.647945,2.55266152 C28.258035,1.98586376 28.2959083,1.02835674 27.7327483,0.414325843 C27.1695883,-0.199705056 26.2186383,-0.23823736 25.6081367,0.328974719 C25.57932,0.355491573 25.54968,0.38573736 25.5233333,0.414325843" id="path30"></path>
                                            </g>
                                            <g id="g32" transform="translate(177.768205, 19.446218)">
                                                <path d="M26.7583333,0.414325843 L0.136673333,29.3462851 L28.882945,2.55266152 C29.4922117,1.98462079 29.5284383,1.02752809 28.964455,0.414325843 C28.40006,-0.198876404 27.44911,-0.235337079 26.8398433,0.332289326 C26.8122617,0.357977528 26.783445,0.386980337 26.7583333,0.414325843" id="path34"></path>
                                            </g>
                                            <g id="g36" transform="translate(163.533019, 10.931697)">
                                                <path d="M38.6966667,0.828651685 L0.160138333,42.8214045 L41.8833783,4.03594803 C42.7985133,3.1857514 42.8553233,1.74969803 42.0101717,0.828651685 C41.16502,-0.0923946629 39.7381833,-0.149157303 38.8230483,0.701453652 C38.780235,0.741228933 38.735775,0.786390449 38.6966667,0.828651685" id="path38"></path>
                                            </g>
                                            <g id="g40" transform="translate(162.944747, 2.813190)">
                                                <path d="M12.2676667,0.0828651685 L0.137085,13.3611798 L13.3297667,1.15182584 C13.635635,0.869255618 13.655395,0.390294944 13.3746383,0.0828651685 C13.09347,-0.224564607 12.617995,-0.244866573 12.3121267,0.0381179775 C12.296895,0.0522050562 12.2816633,0.0679494382 12.2676667,0.0828651685" id="path42"></path>
                                            </g>
                                            <g id="g44" transform="translate(191.307387, 29.390162)">
                                                <path d="M12.2676667,0.0828651685 L0.137085,13.3611798 L13.3297667,1.15182584 C13.635635,0.869255618 13.655395,0.390294944 13.3746383,0.0828651685 C13.09347,-0.224564607 12.617995,-0.244866573 12.3121267,0.0381179775 C12.296895,0.0522050562 12.2816633,0.0679494382 12.2676667,0.0828651685" id="path46"></path>
                                            </g>
                                            <g id="g48" transform="translate(0.000000, 0.447721)">
                                                <path d="M0,36.875 L8.64417667,36.875 L18.2253067,21.3622261 L27.8064367,36.875 L36.4506133,36.875 L36.4506133,0.188932584 L28.5354983,0.188932584 L28.5354983,24.1398666 L18.2771767,8.46964888 L18.069285,8.46964888 L7.91470333,23.9824228 L7.91470333,0.188932584 L0,0.188932584 L0,36.875 L0,36.875 Z" id="path50"></path>
                                            </g>
                                            <g id="g52" transform="translate(46.500467, 0.447721)">
                                                <path d="M0,36.875 L27.4421117,36.875 L27.4421117,29.6947331 L7.91470333,29.6947331 L7.91470333,22.2530267 L25.098905,22.2530267 L25.098905,15.0731742 L7.91470333,15.0731742 L7.91470333,7.36919944 L27.702285,7.36919944 L27.702285,0.188932584 L0,0.188932584 L0,36.875 L0,36.875 Z" id="path54"></path>
                                            </g>
                                            <g id="g56" transform="translate(83.968720, 0.463713)">
                                                <path d="M11.115,29.4171348 L0.0238766667,29.4171348 L0.0238766667,36.8588413 L30.2258017,36.8588413 L30.2258017,29.4171348 L19.1342667,29.4171348 L19.1342667,0.173188202 L11.115,0.173188202 L11.115,29.4171348 L11.115,29.4171348 Z" id="path58"></path>
                                            </g>
                                            <g id="g60" transform="translate(124.244417, 0.447721)">
                                                <path d="M0,36.875 L27.4421117,36.875 L27.4421117,29.6947331 L7.915115,29.6947331 L7.915115,22.2530267 L25.098905,22.2530267 L25.098905,15.0731742 L7.915115,15.0731742 L7.915115,7.36919944 L27.702285,7.36919944 L27.702285,0.188932584 L0,0.188932584 L0,36.875 L0,36.875 Z" id="path62"></path>
                                            </g>
                                            <g id="g64" transform="translate(215.584358, 0.444737)">
                                                <path d="M16.055,19.0589888 C18.0338817,19.0589888 19.5516967,19.5309059 20.6113267,20.4739115 C21.6697217,21.4173315 22.199125,22.6752247 22.199125,24.2475913 L22.199125,24.3524157 C22.199125,26.0992135 21.643375,27.4093118 20.5326983,28.283125 C19.42161,29.1561096 17.8774483,29.5932233 15.8985667,29.5932233 L7.93117,29.5932233 L7.93117,19.0589888 L16.055,19.0589888 L16.055,19.0589888 Z M-0.087685,36.8779003 L16.5753467,36.8779003 C21.1921883,36.8779003 24.733345,35.6374087 27.1979933,33.1572542 C29.2810267,31.0607654 30.3221317,28.265309 30.3221317,24.7712992 L30.3221317,24.666889 C30.3221317,21.6965871 29.6021267,19.2769242 28.1612933,17.4083146 C26.72046,15.5388764 24.8366733,14.1670435 22.51158,13.2944733 L31.4155183,0.192247191 L22.0426917,0.192247191 L14.23214,11.9313413 L14.1284,11.9313413 L7.93117,11.9313413 L7.93117,0.192247191 L-0.087685,0.192247191 L-0.087685,36.8779003 L-0.087685,36.8779003 Z" id="path66"></path>
                                            </g>
                                        </g>
                                    </g>
                                </g>
                            </g>
                        </g>
                    </g>
                    <path d="M3.17435236,134.196262 L14.2765289,134.196262 L14.2765289,136.663551 L0,136.663551 L0,113.336449 L3.17435236,113.336449 L3.17435236,134.196262 L3.17435236,134.196262 Z M59.5101663,127.082777 C59.5101663,129.934594 58.6212491,132.300391 56.8433881,134.18024 C55.065527,136.06009 52.7586392,137 49.9226554,137 C47.1833528,137 44.9570315,136.06009 43.2436246,134.18024 C41.5302178,132.300391 40.6735272,129.934594 40.6735272,127.082777 L40.6735272,122.933244 C40.6735272,120.092109 41.5302178,117.726311 43.2436246,115.835781 C44.9570315,113.945251 47.1833528,113 49.9226554,113 C52.7586392,113 55.065527,113.942581 56.8433881,115.82777 C58.6212491,117.71296 59.5101663,120.081428 59.5101663,122.933244 L59.5101663,127.082777 L59.5101663,127.082777 Z M56.335814,122.901202 C56.335814,120.765009 55.7557351,119.013358 54.5955599,117.646195 C53.4353847,116.279032 51.8777654,115.595461 49.9226554,115.595461 C48.074969,115.595461 46.6006018,116.279032 45.4995096,117.646195 C44.3984174,119.013358 43.8478795,120.765009 43.8478795,122.901202 L43.8478795,127.082777 C43.8478795,129.240331 44.3984174,131.002663 45.4995096,132.369826 C46.6006018,133.736989 48.074969,134.420561 49.9226554,134.420561 C51.8885078,134.420561 53.4488126,133.73966 54.6036166,132.377837 C55.7584206,131.016015 56.335814,129.251012 56.335814,127.082777 L56.335814,122.901202 L56.335814,122.901202 Z M106.322923,136.663551 L103.148571,136.663551 L91.8530327,118.623498 L91.7563519,118.655541 L91.7563519,136.663551 L88.5819996,136.663551 L88.5819996,113.336449 L91.7563519,113.336449 L103.05189,131.344459 L103.148571,131.312417 L103.148571,113.336449 L106.322923,113.336449 L106.322923,136.663551 L106.322923,136.663551 Z M136.458245,136.663551 L136.458245,113.336449 L143.660963,113.336449 C146.733279,113.336449 149.198614,114.273689 151.057043,116.148198 C152.915472,118.022706 153.844672,120.444578 153.844672,123.413885 L153.844672,126.602136 C153.844672,129.582124 152.915472,132.003996 151.057043,133.867824 C149.198614,135.731651 146.733279,136.663551 143.660963,136.663551 L136.458245,136.663551 L136.458245,136.663551 Z M139.632597,115.81976 L139.632597,134.196262 L143.660963,134.196262 C145.830921,134.196262 147.541616,133.485988 148.793102,132.065421 C150.044587,130.644853 150.67032,128.823776 150.67032,126.602136 L150.67032,123.381843 C150.67032,121.181564 150.044587,119.371169 148.793102,117.950601 C147.541616,116.530033 145.830921,115.81976 143.660963,115.81976 L139.632597,115.81976 L139.632597,115.81976 Z M200.28682,127.082777 C200.28682,129.934594 199.397902,132.300391 197.620041,134.18024 C195.84218,136.06009 193.535293,137 190.699309,137 C187.960006,137 185.733685,136.06009 184.020278,134.18024 C182.306871,132.300391 181.450181,129.934594 181.450181,127.082777 L181.450181,122.933244 C181.450181,120.092109 182.306871,117.726311 184.020278,115.835781 C185.733685,113.945251 187.960006,113 190.699309,113 C193.535293,113 195.84218,113.942581 197.620041,115.82777 C199.397902,117.71296 200.28682,120.081428 200.28682,122.933244 L200.28682,127.082777 L200.28682,127.082777 Z M197.112467,122.901202 C197.112467,120.765009 196.532388,119.013358 195.372213,117.646195 C194.212038,116.279032 192.654419,115.595461 190.699309,115.595461 C188.851622,115.595461 187.377255,116.279032 186.276163,117.646195 C185.175071,119.013358 184.624533,120.765009 184.624533,122.901202 L184.624533,127.082777 C184.624533,129.240331 185.175071,131.002663 186.276163,132.369826 C187.377255,133.736989 188.851622,134.420561 190.699309,134.420561 C192.665161,134.420561 194.225466,133.73966 195.38027,132.377837 C196.535074,131.016015 197.112467,129.251012 197.112467,127.082777 L197.112467,122.901202 L197.112467,122.901202 Z M247.099577,136.663551 L243.925224,136.663551 L232.629686,118.623498 L232.533005,118.655541 L232.533005,136.663551 L229.358653,136.663551 L229.358653,113.336449 L232.533005,113.336449 L243.828543,131.344459 L243.925224,131.312417 L243.925224,113.336449 L247.099577,113.336449 L247.099577,136.663551 L247.099577,136.663551 Z" id="LONDON" fill="#000000" sketch:type="MSShapeGroup"></path>
                </g>
            </g>
        </g>
    </g>
</svg>